# xmcd
#
# Track frame offsets:
# 150
# 13567
# 27048
# 40600
# 54252
# 67609
# 81212
# 94708
# 108075
# 121747
# 135346
# 148704
# 162183
# 175867
# 189451
# 202758
# 216381
# 229506
# 243269
# 256575
# 270067
# 283522
#
# Disc length: 3931 seconds
#
# Revision: 0
# Processed by: cddbd v1.5.1PL0 Copyright (c) Steve Scherf et al.
# Submitted via: Audion 3.0.2 (http://www.panic.com/audion/)
#
DISCID=060f5916
DTITLE=Mark Bowden - Black Hawk Down
DYEAR=1900
DGENRE=
TTITLE0=4-1
TTITLE1=4-2
TTITLE2=4-3
TTITLE3=4-4
TTITLE4=4-5
TTITLE5=4-6
TTITLE6=4-7
TTITLE7=4-8
TTITLE8=4-9
TTITLE9=4-10
TTITLE10=4-11
TTITLE11=4-12
TTITLE12=4-13
TTITLE13=4-14
TTITLE14=4-15
TTITLE15=4-16
TTITLE16=4-17
TTITLE17=4-18
TTITLE18=4-19
TTITLE19=4-20
TTITLE20=4-21
TTITLE21=4-22
EXTD=
EXTT0=
EXTT1=
EXTT2=
EXTT3=
EXTT4=
EXTT5=
EXTT6=
EXTT7=
EXTT8=
EXTT9=
EXTT10=
EXTT11=
EXTT12=
EXTT13=
EXTT14=
EXTT15=
EXTT16=
EXTT17=
EXTT18=
EXTT19=
EXTT20=
EXTT21=
PLAYORDER=
